<svg width="155" height="86" viewBox="0 0 155 86" fill="none" xmlns="http://www.w3.org/2000/svg">
<path d="M27.2066 69.2666H26.2696C26.101 69.2666 26.0167 69.1824 26.0167 69.0138V59.9555C26.0167 59.7869 26.101 59.7026 26.2696 59.7026H29.7501C30.474 59.7026 31.0392 59.9109 31.4458 60.3273C31.8622 60.7339 32.0705 61.2991 32.0705 62.023V63.2724C32.0705 64.4127 31.5995 65.1317 30.6574 65.4291V65.4886L32.3085 68.9692C32.4175 69.1675 32.3531 69.2666 32.1151 69.2666H31.1929C30.9549 69.2666 30.8012 69.1824 30.7318 69.0138L29.1403 65.5928H27.638C27.519 65.5928 27.4595 65.6423 27.4595 65.7415V69.0138C27.4595 69.1824 27.3752 69.2666 27.2066 69.2666ZM27.6231 64.4028H29.5121C30.2459 64.4028 30.6128 64.0409 30.6128 63.317V62.0676C30.6128 61.3338 30.2459 60.9669 29.5121 60.9669H27.6231C27.514 60.9669 27.4595 61.0165 27.4595 61.1157V64.2541C27.4595 64.3532 27.514 64.4028 27.6231 64.4028Z" fill="white" fill-opacity="0.7"/>
<path d="M36.6664 69.2666H36.0863C35.3526 69.2666 34.7824 69.0634 34.3758 68.6568C33.9792 68.2503 33.7809 67.685 33.7809 66.9612V63.9864C33.7809 63.2526 33.9792 62.6874 34.3758 62.2907C34.7824 61.8842 35.3526 61.6809 36.0863 61.6809H39.4181C39.5966 61.6809 39.6859 61.7652 39.6859 61.9337V69.0138C39.6859 69.1824 39.5966 69.2666 39.4181 69.2666H38.4811C38.3125 69.2666 38.2282 69.1824 38.2282 69.0138V68.4783H38.1687C37.9307 69.0039 37.43 69.2666 36.6664 69.2666ZM38.2282 66.7381V63.0939C38.2282 62.9948 38.1737 62.9452 38.0646 62.9452H36.2946C35.5806 62.9452 35.2237 63.3121 35.2237 64.0459V66.9017C35.2237 67.6355 35.5806 68.0024 36.2946 68.0024H37.0085C37.8217 68.0024 38.2282 67.5809 38.2282 66.7381Z" fill="white" fill-opacity="0.7"/>
<path d="M43.8316 61.6809H45.081C45.2595 61.6809 45.3487 61.7602 45.3487 61.9189V62.6923C45.3487 62.8609 45.2595 62.9452 45.081 62.9452H43.8316C43.7324 62.9452 43.6828 62.9948 43.6828 63.0939V69.0138C43.6828 69.1824 43.5936 69.2666 43.4151 69.2666H42.478C42.3094 69.2666 42.2252 69.1824 42.2252 69.0138V63.0939C42.2252 62.9948 42.1706 62.9452 42.0615 62.9452H41.2732C41.1046 62.9452 41.0204 62.8609 41.0204 62.6923V61.9189C41.0204 61.8296 41.0352 61.7701 41.065 61.7404C41.1046 61.7007 41.1741 61.6809 41.2732 61.6809H42.0615C42.1706 61.6809 42.2252 61.6313 42.2252 61.5321V61.1008C42.2252 60.367 42.4136 59.8018 42.7904 59.4051C43.1672 59.0085 43.7175 58.8102 44.4414 58.8102H45.0958C45.2644 58.8102 45.3487 58.8895 45.3487 59.0482V59.8216C45.3487 59.9902 45.2644 60.0745 45.0958 60.0745H44.6496C44.2927 60.0745 44.0398 60.1637 43.8911 60.3422C43.7522 60.5108 43.6828 60.7884 43.6828 61.1752V61.5321C43.6828 61.6313 43.7324 61.6809 43.8316 61.6809Z" fill="white" fill-opacity="0.7"/>
<path d="M49.26 69.2666H48.6799C47.9461 69.2666 47.376 69.0634 46.9694 68.6568C46.5728 68.2503 46.3744 67.685 46.3744 66.9612V63.9864C46.3744 63.2526 46.5728 62.6874 46.9694 62.2907C47.376 61.8842 47.9461 61.6809 48.6799 61.6809H52.0117C52.1902 61.6809 52.2794 61.7652 52.2794 61.9337V69.0138C52.2794 69.1824 52.1902 69.2666 52.0117 69.2666H51.0746C50.9061 69.2666 50.8218 69.1824 50.8218 69.0138V68.4783H50.7623C50.5243 69.0039 50.0235 69.2666 49.26 69.2666ZM50.8218 66.7381V63.0939C50.8218 62.9948 50.7672 62.9452 50.6582 62.9452H48.8882C48.1742 62.9452 47.8172 63.3121 47.8172 64.0459V66.9017C47.8172 67.6355 48.1742 68.0024 48.8882 68.0024H49.6021C50.4152 68.0024 50.8218 67.5809 50.8218 66.7381Z" fill="white" fill-opacity="0.7"/>
<path d="M59.5041 69.2666H56.2913C55.5575 69.2666 54.9873 69.0634 54.5807 68.6568C54.1841 68.2503 53.9858 67.685 53.9858 66.9612V63.9864C53.9858 63.2526 54.1841 62.6874 54.5807 62.2907C54.9873 61.8842 55.5575 61.6809 56.2913 61.6809H57.5109C58.2447 61.6809 58.8149 61.8842 59.2214 62.2907C59.628 62.6874 59.8313 63.2526 59.8313 63.9864V65.8754C59.8313 66.0539 59.742 66.1431 59.5636 66.1431H55.5773C55.4682 66.1431 55.4137 66.1927 55.4137 66.2918V66.9314C55.4137 67.6553 55.7756 68.0172 56.4995 68.0172H59.5041C59.6825 68.0172 59.7718 68.1065 59.7718 68.285V69.0287C59.7718 69.1873 59.6825 69.2666 59.5041 69.2666ZM55.5773 65.1317H58.2398C58.3389 65.1317 58.3885 65.0821 58.3885 64.9829V64.031C58.3885 63.6542 58.3042 63.3815 58.1356 63.2129C57.9671 63.0344 57.6944 62.9452 57.3176 62.9452H56.4995C56.1227 62.9452 55.85 63.0344 55.6814 63.2129C55.5128 63.3815 55.4286 63.6542 55.4286 64.031V64.9829C55.4286 65.0821 55.4781 65.1317 55.5773 65.1317Z" fill="white" fill-opacity="0.7"/>
<path d="M62.7342 69.2666H61.7971C61.6285 69.2666 61.5442 69.1824 61.5442 69.0138V59.063C61.5442 58.8945 61.6285 58.8102 61.7971 58.8102H62.7342C62.9027 58.8102 62.987 58.8945 62.987 59.063V69.0138C62.987 69.1824 62.9027 69.2666 62.7342 69.2666Z" fill="white" fill-opacity="0.7"/>
<path d="M67.6783 69.2666H67.0982C66.3644 69.2666 65.7942 69.0634 65.3877 68.6568C64.991 68.2503 64.7927 67.685 64.7927 66.9612V63.9864C64.7927 63.2526 64.991 62.6874 65.3877 62.2907C65.7942 61.8842 66.3644 61.6809 67.0982 61.6809H70.43C70.6085 61.6809 70.6977 61.7652 70.6977 61.9337V69.0138C70.6977 69.1824 70.6085 69.2666 70.43 69.2666H69.4929C69.3243 69.2666 69.2401 69.1824 69.2401 69.0138V68.4783H69.1806C68.9426 69.0039 68.4418 69.2666 67.6783 69.2666ZM69.2401 66.7381V63.0939C69.2401 62.9948 69.1855 62.9452 69.0764 62.9452H67.3064C66.5925 62.9452 66.2355 63.3121 66.2355 64.0459V66.9017C66.2355 67.6355 66.5925 68.0024 67.3064 68.0024H68.0204C68.8335 68.0024 69.2401 67.5809 69.2401 66.7381Z" fill="white" fill-opacity="0.7"/>
<path d="M82.7903 59.7026H84.4562C84.6248 59.7026 84.7091 59.7869 84.7091 59.9555V69.0138C84.7091 69.1824 84.6248 69.2666 84.4562 69.2666H83.534C83.3655 69.2666 83.2812 69.1824 83.2812 69.0138V61.5024H83.2217L81.2881 66.9463C81.2286 67.105 81.1195 67.1843 80.9608 67.1843H80.0089C79.8601 67.1843 79.756 67.105 79.6965 66.9463L77.7183 61.4875H77.6588V69.0138C77.6588 69.113 77.6389 69.1824 77.5993 69.222C77.5695 69.2518 77.5051 69.2666 77.4059 69.2666H76.4986C76.33 69.2666 76.2457 69.1824 76.2457 69.0138V59.9555C76.2457 59.7869 76.33 59.7026 76.4986 59.7026H78.1645C78.2736 59.7026 78.3529 59.7572 78.4025 59.8662L80.4402 65.6076H80.5146L82.5672 59.8662C82.5871 59.7572 82.6614 59.7026 82.7903 59.7026Z" fill="white" fill-opacity="0.7"/>
<path d="M92.0992 69.2666H88.8864C88.1526 69.2666 87.5824 69.0634 87.1759 68.6568C86.7792 68.2503 86.5809 67.685 86.5809 66.9612V63.9864C86.5809 63.2526 86.7792 62.6874 87.1759 62.2907C87.5824 61.8842 88.1526 61.6809 88.8864 61.6809H90.106C90.8398 61.6809 91.41 61.8842 91.8166 62.2907C92.2231 62.6874 92.4264 63.2526 92.4264 63.9864V65.8754C92.4264 66.0539 92.3372 66.1431 92.1587 66.1431H88.1724C88.0633 66.1431 88.0088 66.1927 88.0088 66.2918V66.9314C88.0088 67.6553 88.3707 68.0172 89.0946 68.0172H92.0992C92.2777 68.0172 92.3669 68.1065 92.3669 68.285V69.0287C92.3669 69.1873 92.2777 69.2666 92.0992 69.2666ZM88.1724 65.1317H90.8349C90.934 65.1317 90.9836 65.0821 90.9836 64.9829V64.031C90.9836 63.6542 90.8993 63.3815 90.7308 63.2129C90.5622 63.0344 90.2895 62.9452 89.9127 62.9452H89.0946C88.7178 62.9452 88.4451 63.0344 88.2765 63.2129C88.108 63.3815 88.0237 63.6542 88.0237 64.031V64.9829C88.0237 65.0821 88.0733 65.1317 88.1724 65.1317Z" fill="white" fill-opacity="0.7"/>
<path d="M96.8911 69.2666H96.1325C95.4185 69.2666 94.8682 69.0683 94.4815 68.6717C94.1047 68.2651 93.9162 67.695 93.9162 66.9612V63.9864C93.9162 63.2427 94.1047 62.6725 94.4815 62.2758C94.8682 61.8792 95.4185 61.6809 96.1325 61.6809H96.8911C97.6546 61.6809 98.1504 61.9437 98.3785 62.4692H98.438V59.063C98.438 58.8945 98.5223 58.8102 98.6908 58.8102H99.6428C99.8113 58.8102 99.8956 58.8945 99.8956 59.063V69.0138C99.8956 69.1824 99.8113 69.2666 99.6428 69.2666H98.6908C98.5223 69.2666 98.438 69.1824 98.438 69.0138V68.4783H98.3785C98.1504 69.0039 97.6546 69.2666 96.8911 69.2666ZM98.438 66.7381V64.2095C98.438 63.3666 98.0314 62.9452 97.2183 62.9452H96.43C95.716 62.9452 95.359 63.3121 95.359 64.0459V66.9017C95.359 67.6355 95.716 68.0024 96.43 68.0024H97.2183C98.0314 68.0024 98.438 67.5809 98.438 66.7381Z" fill="white" fill-opacity="0.7"/>
<path d="M107.133 69.2666H103.92C103.186 69.2666 102.616 69.0634 102.21 68.6568C101.813 68.2503 101.615 67.685 101.615 66.9612V63.9864C101.615 63.2526 101.813 62.6874 102.21 62.2907C102.616 61.8842 103.186 61.6809 103.92 61.6809H105.14C105.874 61.6809 106.444 61.8842 106.85 62.2907C107.257 62.6874 107.46 63.2526 107.46 63.9864V65.8754C107.46 66.0539 107.371 66.1431 107.193 66.1431H103.206C103.097 66.1431 103.043 66.1927 103.043 66.2918V66.9314C103.043 67.6553 103.405 68.0172 104.128 68.0172H107.133C107.312 68.0172 107.401 68.1065 107.401 68.285V69.0287C107.401 69.1873 107.312 69.2666 107.133 69.2666ZM103.206 65.1317H105.869C105.968 65.1317 106.017 65.0821 106.017 64.9829V64.031C106.017 63.6542 105.933 63.3815 105.765 63.2129C105.596 63.0344 105.323 62.9452 104.947 62.9452H104.128C103.752 62.9452 103.479 63.0344 103.31 63.2129C103.142 63.3815 103.058 63.6542 103.058 64.031V64.9829C103.058 65.0821 103.107 65.1317 103.206 65.1317Z" fill="white" fill-opacity="0.7"/>
<path d="M109.173 60.4166V59.063C109.173 58.9044 109.253 58.8251 109.411 58.8251H110.378C110.537 58.8251 110.616 58.9044 110.616 59.063V60.4166C110.616 60.5852 110.537 60.6694 110.378 60.6694H109.411C109.253 60.6694 109.173 60.5852 109.173 60.4166ZM109.173 69.0138V61.9337C109.173 61.7652 109.253 61.6809 109.411 61.6809H110.363C110.532 61.6809 110.616 61.7652 110.616 61.9337V69.0138C110.616 69.113 110.596 69.1824 110.556 69.222C110.527 69.2518 110.467 69.2666 110.378 69.2666H109.426C109.257 69.2666 109.173 69.1824 109.173 69.0138Z" fill="white" fill-opacity="0.7"/>
<path d="M113.76 69.2666H112.823C112.655 69.2666 112.57 69.1824 112.57 69.0138V61.9337C112.57 61.7652 112.655 61.6809 112.823 61.6809H113.76C113.929 61.6809 114.013 61.7652 114.013 61.9337V62.4989H114.073C114.172 62.251 114.36 62.0527 114.638 61.904C114.925 61.7552 115.243 61.6809 115.59 61.6809H116.14C116.309 61.6809 116.393 61.7652 116.393 61.9337V62.7072C116.393 62.8956 116.309 62.9749 116.14 62.9452H115.248C114.425 62.9452 114.013 63.3964 114.013 64.2987V69.0138C114.013 69.1824 113.929 69.2666 113.76 69.2666Z" fill="white" fill-opacity="0.7"/>
<path d="M121.018 69.2666H119.709C118.976 69.2666 118.405 69.0634 117.999 68.6568C117.602 68.2503 117.404 67.685 117.404 66.9612V63.9864C117.404 63.2526 117.602 62.6874 117.999 62.2907C118.405 61.8842 118.976 61.6809 119.709 61.6809H121.018C121.742 61.6809 122.307 61.8842 122.714 62.2907C123.13 62.6874 123.339 63.2526 123.339 63.9864V66.9612C123.339 67.685 123.13 68.2503 122.714 68.6568C122.307 69.0634 121.742 69.2666 121.018 69.2666ZM119.918 68.0024H120.825C121.539 68.0024 121.896 67.6404 121.896 66.9165V64.031C121.896 63.3071 121.539 62.9452 120.825 62.9452H119.918C119.541 62.9452 119.268 63.0344 119.1 63.2129C118.931 63.3815 118.847 63.6542 118.847 64.031V66.9165C118.847 67.2934 118.931 67.571 119.1 67.7495C119.268 67.9181 119.541 68.0024 119.918 68.0024Z" fill="white" fill-opacity="0.7"/>
<path d="M127.755 69.2666H125.018C124.849 69.2666 124.765 69.1824 124.765 69.0138V68.285C124.765 68.1263 124.849 68.047 125.018 68.047H127.517C128.161 68.047 128.484 67.8239 128.484 67.3776V67.1992C128.484 66.8025 128.251 66.5001 127.785 66.2918L126.163 65.5184C125.658 65.2804 125.291 65.0176 125.063 64.7301C124.835 64.4425 124.721 64.0657 124.721 63.5996C124.721 62.3205 125.43 61.6809 126.848 61.6809H129.317C129.475 61.6809 129.555 61.7652 129.555 61.9337V62.6626C129.555 62.8311 129.475 62.9154 129.317 62.9154H127.145C126.848 62.9154 126.619 62.97 126.461 63.079C126.302 63.1782 126.223 63.3121 126.223 63.4806V63.6443C126.223 63.9616 126.476 64.2392 126.981 64.4772L128.618 65.3101C129.133 65.5382 129.485 65.8109 129.674 66.1282C129.872 66.4356 129.971 66.8372 129.971 67.333C129.971 68.6221 129.232 69.2666 127.755 69.2666Z" fill="white" fill-opacity="0.7"/>
<path d="M11.8169 86H7.05718C6.88861 86 6.80432 85.9157 6.80432 85.7471V76.6888C6.80432 76.5203 6.88861 76.436 7.05718 76.436H11.8169C11.9755 76.436 12.0549 76.5203 12.0549 76.6888V77.4474C12.0549 77.616 11.9755 77.7003 11.8169 77.7003H8.42559C8.3066 77.7003 8.24711 77.7498 8.24711 77.849V80.3627C8.24711 80.4619 8.3066 80.5115 8.42559 80.5115H11.2963C11.4748 80.5115 11.564 80.5958 11.564 80.7643V81.5229C11.564 81.6915 11.4748 81.7758 11.2963 81.7758H8.42559C8.3066 81.7758 8.24711 81.8253 8.24711 81.9245V84.5721C8.24711 84.6812 8.3066 84.7357 8.42559 84.7357H11.8169C11.9755 84.7357 12.0549 84.82 12.0549 84.9886V85.7471C12.0549 85.9157 11.9755 86 11.8169 86Z" fill="#F48181"/>
<path d="M17.357 86H16.4348C16.2662 86 16.182 85.9157 16.182 85.7471V76.6888C16.182 76.5203 16.2662 76.436 16.4348 76.436H17.2678C17.4264 76.436 17.5355 76.4905 17.595 76.5996L21.1945 83.0698H21.254V76.6888C21.254 76.5203 21.3383 76.436 21.5069 76.436H22.4291C22.5976 76.436 22.6819 76.5203 22.6819 76.6888V85.7471C22.6819 85.9157 22.5976 86 22.4291 86H21.6259C21.4672 86 21.3383 85.9207 21.2391 85.762L17.6694 79.3662H17.6099V85.7471C17.6099 85.9157 17.5256 86 17.357 86Z" fill="#F48181"/>
<path d="M30.833 86H29.2415C28.5077 86 27.9375 85.7967 27.531 85.3902C27.1343 84.9836 26.936 84.4184 26.936 83.6945V78.7415C26.936 78.0077 27.1343 77.4425 27.531 77.0458C27.9375 76.6393 28.5077 76.436 29.2415 76.436H30.833C31.5668 76.436 32.132 76.6393 32.5287 77.0458C32.9352 77.4425 33.1385 78.0077 33.1385 78.7415V79.2769C33.1385 79.4554 33.0542 79.5447 32.8856 79.5447H31.9486C31.78 79.5447 31.6957 79.4554 31.6957 79.2769V78.801C31.6957 78.0672 31.3387 77.7003 30.6248 77.7003H29.4497C28.7358 77.7003 28.3788 78.0672 28.3788 78.801V83.635C28.3788 84.3688 28.7358 84.7357 29.4497 84.7357H30.6248C31.3387 84.7357 31.6957 84.3688 31.6957 83.635V82.2964C31.6957 82.1972 31.6412 82.1476 31.5321 82.1476H30.3273C30.1587 82.1476 30.0744 82.0633 30.0744 81.8948V81.1362C30.0744 80.9676 30.1587 80.8833 30.3273 80.8833H32.8261C33.0344 80.8833 33.1385 80.9874 33.1385 81.1957V83.6945C33.1385 84.4184 32.9352 84.9836 32.5287 85.3902C32.1221 85.7967 31.5569 86 30.833 86Z" fill="#F48181"/>
<path d="M42.4046 86H37.6449C37.4763 86 37.392 85.9157 37.392 85.7471V76.6888C37.392 76.5203 37.4763 76.436 37.6449 76.436H42.4046C42.5632 76.436 42.6426 76.5203 42.6426 76.6888V77.4474C42.6426 77.616 42.5632 77.7003 42.4046 77.7003H39.0133C38.8943 77.7003 38.8348 77.7498 38.8348 77.849V80.3627C38.8348 80.4619 38.8943 80.5115 39.0133 80.5115H41.884C42.0625 80.5115 42.1517 80.5958 42.1517 80.7643V81.5229C42.1517 81.6915 42.0625 81.7758 41.884 81.7758H39.0133C38.8943 81.7758 38.8348 81.8253 38.8348 81.9245V84.5721C38.8348 84.6812 38.8943 84.7357 39.0133 84.7357H42.4046C42.5632 84.7357 42.6426 84.82 42.6426 84.9886V85.7471C42.6426 85.9157 42.5632 86 42.4046 86Z" fill="#F48181"/>
<path d="M47.9447 86H47.0225C46.8539 86 46.7697 85.9157 46.7697 85.7471V76.6888C46.7697 76.5203 46.8539 76.436 47.0225 76.436H47.8555C48.0141 76.436 48.1232 76.4905 48.1827 76.5996L51.7822 83.0698H51.8417V76.6888C51.8417 76.5203 51.926 76.436 52.0946 76.436H53.0168C53.1853 76.436 53.2696 76.5203 53.2696 76.6888V85.7471C53.2696 85.9157 53.1853 86 53.0168 86H52.2136C52.0549 86 51.926 85.9207 51.8268 85.762L48.2571 79.3662H48.1976V85.7471C48.1976 85.9157 48.1133 86 47.9447 86Z" fill="#F48181"/>
<path d="M58.8624 86H57.9253C57.7567 86 57.6725 85.9157 57.6725 85.7471V76.6888C57.6725 76.5203 57.7567 76.436 57.9253 76.436H58.8624C59.031 76.436 59.1152 76.5203 59.1152 76.6888V80.4073C59.1152 80.5065 59.1747 80.5561 59.2937 80.5561H62.4322C62.5313 80.5561 62.5809 80.5065 62.5809 80.4073V76.6888C62.5809 76.5203 62.6652 76.436 62.8338 76.436H63.7857C63.9543 76.436 64.0386 76.5203 64.0386 76.6888V85.7471C64.0386 85.9157 63.9543 86 63.7857 86H62.8338C62.6652 86 62.5809 85.9157 62.5809 85.7471V81.984C62.5809 81.8848 62.5313 81.8353 62.4322 81.8353H59.2937C59.1747 81.8353 59.1152 81.8848 59.1152 81.984V85.7471C59.1152 85.9157 59.031 86 58.8624 86Z" fill="#F48181"/>
<path d="M68.9651 86H67.8942C67.7554 86 67.7058 85.9157 67.7455 85.7471L70.3335 76.6888C70.3831 76.5203 70.5021 76.436 70.6905 76.436H72.1779C72.3762 76.436 72.4952 76.5203 72.5349 76.6888L75.123 85.7471C75.1627 85.9157 75.1081 86 74.9594 86H73.9033C73.8141 86 73.7496 85.9851 73.71 85.9554C73.6802 85.9157 73.6554 85.8463 73.6356 85.7471L73.0704 83.8135H69.7981L69.2329 85.7471C69.1932 85.9157 69.104 86 68.9651 86ZM71.4045 77.8639L70.0956 82.6236H72.7878L71.464 77.8639H71.4045Z" fill="#F48181"/>
<path d="M80.0143 86H79.0773C78.9087 86 78.8244 85.9157 78.8244 85.7471V76.6888C78.8244 76.5203 78.9087 76.436 79.0773 76.436H82.5578C83.2817 76.436 83.8469 76.6442 84.2535 77.0607C84.6699 77.4672 84.8782 78.0325 84.8782 78.7563V80.0057C84.8782 81.1461 84.4072 81.865 83.4651 82.1625V82.222L85.1162 85.7025C85.2252 85.9008 85.1608 86 84.9228 86H84.0006C83.7626 86 83.6089 85.9157 83.5395 85.7471L81.948 82.3261H80.4457C80.3267 82.3261 80.2672 82.3757 80.2672 82.4748V85.7471C80.2672 85.9157 80.1829 86 80.0143 86ZM80.4308 81.1362H82.3198C83.0536 81.1362 83.4205 80.7742 83.4205 80.0504V78.801C83.4205 78.0672 83.0536 77.7003 82.3198 77.7003H80.4308C80.3217 77.7003 80.2672 77.7498 80.2672 77.849V80.9874C80.2672 81.0866 80.3217 81.1362 80.4308 81.1362Z" fill="#F48181"/>
<path d="M90.6343 76.6888V85.7471C90.6343 85.9157 90.55 86 90.3815 86H89.4444C89.2758 86 89.1915 85.9157 89.1915 85.7471V76.6888C89.1915 76.5203 89.2758 76.436 89.4444 76.436H90.3815C90.55 76.436 90.6343 76.5203 90.6343 76.6888Z" fill="#F48181"/>
<path d="M95.631 86H94.56C94.4212 86 94.3716 85.9157 94.4113 85.7471L96.9994 76.6888C97.049 76.5203 97.1679 76.436 97.3563 76.436H98.8438C99.0421 76.436 99.1611 76.5203 99.2007 76.6888L101.789 85.7471C101.828 85.9157 101.774 86 101.625 86H100.569C100.48 86 100.415 85.9851 100.376 85.9554C100.346 85.9157 100.321 85.8463 100.301 85.7471L99.7362 83.8135H96.4639L95.8987 85.7471C95.859 85.9157 95.7698 86 95.631 86ZM98.0703 77.8639L96.7614 82.6236H99.4536L98.1298 77.8639H98.0703Z" fill="#F48181"/>
<path d="M115.148 86H113.422C112.689 86 112.118 85.7967 111.712 85.3902C111.315 84.9836 111.117 84.4184 111.117 83.6945V78.7415C111.117 78.0077 111.315 77.4425 111.712 77.0458C112.118 76.6393 112.689 76.436 113.422 76.436H115.148C115.872 76.436 116.437 76.6393 116.843 77.0458C117.25 77.4425 117.453 78.0077 117.453 78.7415V79.4554C117.453 79.6339 117.364 79.7231 117.185 79.7231H116.248C116.08 79.7231 115.996 79.6339 115.996 79.4554V78.801C115.996 78.0672 115.639 77.7003 114.925 77.7003H113.631C112.917 77.7003 112.56 78.0672 112.56 78.801V83.635C112.56 84.3688 112.917 84.7357 113.631 84.7357H114.925C115.639 84.7357 115.996 84.3688 115.996 83.635V82.9806C115.996 82.8021 116.08 82.7128 116.248 82.7128H117.185C117.364 82.7128 117.453 82.8021 117.453 82.9806V83.6945C117.453 84.4184 117.25 84.9836 116.843 85.3902C116.437 85.7967 115.872 86 115.148 86Z" fill="#F48181"/>
<path d="M123.046 76.6888V85.7471C123.046 85.9157 122.962 86 122.794 86H121.856C121.688 86 121.604 85.9157 121.604 85.7471V76.6888C121.604 76.5203 121.688 76.436 121.856 76.436H122.794C122.962 76.436 123.046 76.5203 123.046 76.6888Z" fill="#F48181"/>
<path d="M131.003 86H129.53C129.362 86 129.258 85.9157 129.218 85.7471L126.749 76.7186C126.69 76.5302 126.764 76.436 126.972 76.436H128.028C128.187 76.436 128.281 76.5203 128.311 76.6888L130.23 84.4531H130.289L132.193 76.6888C132.233 76.5203 132.332 76.436 132.49 76.436H133.532C133.74 76.436 133.819 76.5302 133.77 76.7186L131.286 85.7471C131.246 85.9157 131.152 86 131.003 86Z" fill="#F48181"/>
<path d="M138.897 76.6888V85.7471C138.897 85.9157 138.812 86 138.644 86H137.707C137.538 86 137.454 85.9157 137.454 85.7471V76.6888C137.454 76.5203 137.538 76.436 137.707 76.436H138.644C138.812 76.436 138.897 76.5203 138.897 76.6888Z" fill="#F48181"/>
<path d="M148.445 86H143.626C143.457 86 143.373 85.9157 143.373 85.7471V76.6888C143.373 76.5203 143.457 76.436 143.626 76.436H144.563C144.731 76.436 144.815 76.5203 144.815 76.6888V84.5572C144.815 84.6564 144.875 84.706 144.994 84.706H148.445C148.613 84.706 148.698 84.7952 148.698 84.9737V85.7471C148.698 85.9157 148.613 86 148.445 86Z" fill="#F48181"/>
<path d="M111.696 37.9384L133.388 16.247M131.855 16.247L153.546 37.9384M2 37.9384L23.6913 16.247M22.1586 16.247L43.85 37.9384M42.2767 37.9457L78.8215 2M76.9116 2L113.456 37.9457M104.826 19.6025L104.516 27.6593H103.896" stroke="#F48181" stroke-width="4"/>
</svg>
